<svg width="800" height="350" viewBox="0 0 800 350" fill="none" xmlns="http://www.w3.org/2000/svg">
<path d="M252.324 111.75H232.726V121.526C232.726 132.313 223.959 141.125 213.127 141.125C202.341 141.125 193.528 132.358 193.528 121.526V111.75H154.377V121.526C154.377 132.313 145.61 141.125 134.778 141.125C123.992 141.125 115.18 132.358 115.18 121.526V111.75H95.6729C95.6729 209.651 85.8965 288 85.8965 288H262.147C262.101 288 252.324 209.651 252.324 111.75V111.75ZM134.824 131.349C140.24 131.349 144.601 126.988 144.601 121.572V101.974C144.601 85.7256 157.728 72.5986 173.976 72.5986C190.224 72.5986 203.351 85.7256 203.351 101.974V121.572C203.351 126.988 207.711 131.349 213.127 131.349C218.543 131.349 222.903 126.988 222.903 121.572V101.974C222.949 74.9395 201.01 53 173.976 53C146.941 53 125.002 74.9395 125.002 101.974V121.572C125.048 126.942 129.408 131.349 134.824 131.349V131.349Z" fill="#5DD9C0"/>
<path d="M313.6 152.4V167.2H339.52V177.6H313.6V198H300.64V142H342.96V152.4H313.6ZM367.042 154.32C373.709 154.32 378.829 155.92 382.402 159.12C385.975 162.267 387.762 167.04 387.762 173.44V198H376.082V192.64C373.735 196.64 369.362 198.64 362.962 198.64C359.655 198.64 356.775 198.08 354.322 196.96C351.922 195.84 350.082 194.293 348.802 192.32C347.522 190.347 346.882 188.107 346.882 185.6C346.882 181.6 348.375 178.453 351.362 176.16C354.402 173.867 359.069 172.72 365.362 172.72H375.282C375.282 170 374.455 167.92 372.802 166.48C371.149 164.987 368.669 164.24 365.362 164.24C363.069 164.24 360.802 164.613 358.562 165.36C356.375 166.053 354.509 167.013 352.962 168.24L348.482 159.52C350.829 157.867 353.629 156.587 356.882 155.68C360.189 154.773 363.575 154.32 367.042 154.32ZM366.082 190.24C368.215 190.24 370.109 189.76 371.762 188.8C373.415 187.787 374.589 186.32 375.282 184.4V180H366.722C361.602 180 359.042 181.68 359.042 185.04C359.042 186.64 359.655 187.92 360.882 188.88C362.162 189.787 363.895 190.24 366.082 190.24ZM417.537 181.12L411.537 187.04V198H399.057V138.64H411.537V172.24L429.777 154.96H444.657L426.737 173.2L446.257 198H431.137L417.537 181.12ZM492.154 176.64C492.154 176.8 492.074 177.92 491.914 180H459.354C459.941 182.667 461.328 184.773 463.514 186.32C465.701 187.867 468.421 188.64 471.674 188.64C473.914 188.64 475.888 188.32 477.594 187.68C479.354 186.987 480.981 185.92 482.474 184.48L489.114 191.68C485.061 196.32 479.141 198.64 471.354 198.64C466.501 198.64 462.208 197.707 458.474 195.84C454.741 193.92 451.861 191.28 449.834 187.92C447.808 184.56 446.794 180.747 446.794 176.48C446.794 172.267 447.781 168.48 449.754 165.12C451.781 161.707 454.528 159.067 457.994 157.2C461.514 155.28 465.434 154.32 469.754 154.32C473.968 154.32 477.781 155.227 481.194 157.04C484.608 158.853 487.274 161.467 489.194 164.88C491.168 168.24 492.154 172.16 492.154 176.64ZM469.834 163.76C467.008 163.76 464.634 164.56 462.714 166.16C460.794 167.76 459.621 169.947 459.194 172.72H480.394C479.968 170 478.794 167.84 476.874 166.24C474.954 164.587 472.608 163.76 469.834 163.76Z" fill="#5DD9C0"/>
<path d="M531.04 198.96C526.613 198.96 522.32 198.373 518.16 197.2C514.053 195.973 510.747 194.4 508.24 192.48L512.64 182.72C515.04 184.48 517.893 185.893 521.2 186.96C524.507 188.027 527.813 188.56 531.12 188.56C534.8 188.56 537.52 188.027 539.28 186.96C541.04 185.84 541.92 184.373 541.92 182.56C541.92 181.227 541.387 180.133 540.32 179.28C539.307 178.373 537.973 177.653 536.32 177.12C534.72 176.587 532.533 176 529.76 175.36C525.493 174.347 522 173.333 519.28 172.32C516.56 171.307 514.213 169.68 512.24 167.44C510.32 165.2 509.36 162.213 509.36 158.48C509.36 155.227 510.24 152.293 512 149.68C513.76 147.013 516.4 144.907 519.92 143.36C523.493 141.813 527.84 141.04 532.96 141.04C536.533 141.04 540.027 141.467 543.44 142.32C546.853 143.173 549.84 144.4 552.4 146L548.4 155.84C543.227 152.907 538.053 151.44 532.88 151.44C529.253 151.44 526.56 152.027 524.8 153.2C523.093 154.373 522.24 155.92 522.24 157.84C522.24 159.76 523.227 161.2 525.2 162.16C527.227 163.067 530.293 163.973 534.4 164.88C538.667 165.893 542.16 166.907 544.88 167.92C547.6 168.933 549.92 170.533 551.84 172.72C553.813 174.907 554.8 177.867 554.8 181.6C554.8 184.8 553.893 187.733 552.08 190.4C550.32 193.013 547.653 195.093 544.08 196.64C540.507 198.187 536.16 198.96 531.04 198.96ZM588.936 154.32C594.269 154.32 598.562 155.92 601.816 159.12C605.122 162.32 606.776 167.067 606.776 173.36V198H594.296V175.28C594.296 171.867 593.549 169.333 592.056 167.68C590.562 165.973 588.402 165.12 585.576 165.12C582.429 165.12 579.922 166.107 578.056 168.08C576.189 170 575.256 172.88 575.256 176.72V198H562.776V138.64H575.256V159.44C576.909 157.787 578.909 156.533 581.256 155.68C583.602 154.773 586.162 154.32 588.936 154.32ZM639.037 198.64C634.504 198.64 630.424 197.707 626.797 195.84C623.224 193.92 620.424 191.28 618.397 187.92C616.37 184.56 615.357 180.747 615.357 176.48C615.357 172.213 616.37 168.4 618.397 165.04C620.424 161.68 623.224 159.067 626.797 157.2C630.424 155.28 634.504 154.32 639.037 154.32C643.57 154.32 647.624 155.28 651.197 157.2C654.77 159.067 657.57 161.68 659.597 165.04C661.624 168.4 662.637 172.213 662.637 176.48C662.637 180.747 661.624 184.56 659.597 187.92C657.57 191.28 654.77 193.92 651.197 195.84C647.624 197.707 643.57 198.64 639.037 198.64ZM639.037 188.4C642.237 188.4 644.85 187.333 646.877 185.2C648.957 183.013 649.997 180.107 649.997 176.48C649.997 172.853 648.957 169.973 646.877 167.84C644.85 165.653 642.237 164.56 639.037 164.56C635.837 164.56 633.197 165.653 631.117 167.84C629.037 169.973 627.997 172.853 627.997 176.48C627.997 180.107 629.037 183.013 631.117 185.2C633.197 187.333 635.837 188.4 639.037 188.4ZM696.419 154.32C700.419 154.32 704.045 155.253 707.299 157.12C710.605 158.933 713.192 161.52 715.059 164.88C716.925 168.187 717.859 172.053 717.859 176.48C717.859 180.907 716.925 184.8 715.059 188.16C713.192 191.467 710.605 194.053 707.299 195.92C704.045 197.733 700.419 198.64 696.419 198.64C690.925 198.64 686.605 196.907 683.459 193.44V213.52H670.979V154.96H682.899V159.92C685.992 156.187 690.499 154.32 696.419 154.32ZM694.259 188.4C697.459 188.4 700.072 187.333 702.099 185.2C704.179 183.013 705.219 180.107 705.219 176.48C705.219 172.853 704.179 169.973 702.099 167.84C700.072 165.653 697.459 164.56 694.259 164.56C691.059 164.56 688.419 165.653 686.339 167.84C684.312 169.973 683.299 172.853 683.299 176.48C683.299 180.107 684.312 183.013 686.339 185.2C688.419 187.333 691.059 188.4 694.259 188.4Z" fill="black"/>
<path d="M376.25 219.75C377.483 219.75 378.6 220.033 379.6 220.6C380.6 221.15 381.383 221.933 381.95 222.95C382.517 223.967 382.8 225.125 382.8 226.425C382.8 227.725 382.517 228.883 381.95 229.9C381.383 230.917 380.6 231.708 379.6 232.275C378.6 232.842 377.483 233.125 376.25 233.125C375.15 233.125 374.158 232.892 373.275 232.425C372.408 231.958 371.708 231.283 371.175 230.4V233H369.475V214.45H371.25V222.35C371.8 221.5 372.5 220.858 373.35 220.425C374.217 219.975 375.183 219.75 376.25 219.75ZM376.125 231.55C377.042 231.55 377.875 231.342 378.625 230.925C379.375 230.492 379.958 229.883 380.375 229.1C380.808 228.317 381.025 227.425 381.025 226.425C381.025 225.425 380.808 224.533 380.375 223.75C379.958 222.967 379.375 222.367 378.625 221.95C377.875 221.517 377.042 221.3 376.125 221.3C375.192 221.3 374.35 221.517 373.6 221.95C372.867 222.367 372.283 222.967 371.85 223.75C371.433 224.533 371.225 225.425 371.225 226.425C371.225 227.425 371.433 228.317 371.85 229.1C372.283 229.883 372.867 230.492 373.6 230.925C374.35 231.342 375.192 231.55 376.125 231.55ZM397.102 219.85L390.527 234.575C389.994 235.808 389.377 236.683 388.677 237.2C387.977 237.717 387.135 237.975 386.152 237.975C385.519 237.975 384.927 237.875 384.377 237.675C383.827 237.475 383.352 237.175 382.952 236.775L383.777 235.45C384.444 236.117 385.244 236.45 386.177 236.45C386.777 236.45 387.285 236.283 387.702 235.95C388.135 235.617 388.535 235.05 388.902 234.25L389.477 232.975L383.602 219.85H385.452L390.402 231.025L395.352 219.85H397.102ZM411.345 233.15C410.045 233.15 408.795 232.942 407.595 232.525C406.412 232.108 405.495 231.558 404.845 230.875L405.57 229.45C406.203 230.083 407.045 230.6 408.095 231C409.145 231.383 410.228 231.575 411.345 231.575C412.912 231.575 414.087 231.292 414.87 230.725C415.653 230.142 416.045 229.392 416.045 228.475C416.045 227.775 415.828 227.217 415.395 226.8C414.978 226.383 414.462 226.067 413.845 225.85C413.228 225.617 412.37 225.367 411.27 225.1C409.953 224.767 408.903 224.45 408.12 224.15C407.337 223.833 406.662 223.358 406.095 222.725C405.545 222.092 405.27 221.233 405.27 220.15C405.27 219.267 405.503 218.467 405.97 217.75C406.437 217.017 407.153 216.433 408.12 216C409.087 215.567 410.287 215.35 411.72 215.35C412.72 215.35 413.695 215.492 414.645 215.775C415.612 216.042 416.445 216.417 417.145 216.9L416.52 218.375C415.787 217.892 415.003 217.533 414.17 217.3C413.337 217.05 412.52 216.925 411.72 216.925C410.187 216.925 409.028 217.225 408.245 217.825C407.478 218.408 407.095 219.167 407.095 220.1C407.095 220.8 407.303 221.367 407.72 221.8C408.153 222.217 408.687 222.542 409.32 222.775C409.97 222.992 410.837 223.233 411.92 223.5C413.203 223.817 414.237 224.133 415.02 224.45C415.82 224.75 416.495 225.217 417.045 225.85C417.595 226.467 417.87 227.308 417.87 228.375C417.87 229.258 417.628 230.067 417.145 230.8C416.678 231.517 415.953 232.092 414.97 232.525C413.987 232.942 412.778 233.15 411.345 233.15ZM432.976 226.975H421.976C422.076 228.342 422.601 229.45 423.551 230.3C424.501 231.133 425.701 231.55 427.151 231.55C427.967 231.55 428.717 231.408 429.401 231.125C430.084 230.825 430.676 230.392 431.176 229.825L432.176 230.975C431.592 231.675 430.859 232.208 429.976 232.575C429.109 232.942 428.151 233.125 427.101 233.125C425.751 233.125 424.551 232.842 423.501 232.275C422.467 231.692 421.659 230.892 421.076 229.875C420.492 228.858 420.201 227.708 420.201 226.425C420.201 225.142 420.476 223.992 421.026 222.975C421.592 221.958 422.359 221.167 423.326 220.6C424.309 220.033 425.409 219.75 426.626 219.75C427.842 219.75 428.934 220.033 429.901 220.6C430.867 221.167 431.626 221.958 432.176 222.975C432.726 223.975 433.001 225.125 433.001 226.425L432.976 226.975ZM426.626 221.275C425.359 221.275 424.292 221.683 423.426 222.5C422.576 223.3 422.092 224.35 421.976 225.65H431.301C431.184 224.35 430.692 223.3 429.826 222.5C428.976 221.683 427.909 221.275 426.626 221.275ZM443.389 219.75C444.622 219.75 445.739 220.033 446.739 220.6C447.739 221.15 448.522 221.933 449.089 222.95C449.655 223.967 449.939 225.125 449.939 226.425C449.939 227.725 449.655 228.883 449.089 229.9C448.522 230.917 447.739 231.708 446.739 232.275C445.739 232.842 444.622 233.125 443.389 233.125C442.289 233.125 441.297 232.892 440.414 232.425C439.547 231.958 438.847 231.283 438.314 230.4V233H436.614V214.45H438.389V222.35C438.939 221.5 439.639 220.858 440.489 220.425C441.355 219.975 442.322 219.75 443.389 219.75ZM443.264 231.55C444.18 231.55 445.014 231.342 445.764 230.925C446.514 230.492 447.097 229.883 447.514 229.1C447.947 228.317 448.164 227.425 448.164 226.425C448.164 225.425 447.947 224.533 447.514 223.75C447.097 222.967 446.514 222.367 445.764 221.95C445.014 221.517 444.18 221.3 443.264 221.3C442.33 221.3 441.489 221.517 440.739 221.95C440.005 222.367 439.422 222.967 438.989 223.75C438.572 224.533 438.364 225.425 438.364 226.425C438.364 227.425 438.572 228.317 438.989 229.1C439.422 229.883 440.005 230.492 440.739 230.925C441.489 231.342 442.33 231.55 443.264 231.55ZM458.084 219.75C459.8 219.75 461.117 220.183 462.034 221.05C462.95 221.9 463.409 223.167 463.409 224.85V233H461.709V230.95C461.309 231.633 460.717 232.167 459.934 232.55C459.167 232.933 458.25 233.125 457.184 233.125C455.717 233.125 454.55 232.775 453.684 232.075C452.817 231.375 452.384 230.45 452.384 229.3C452.384 228.183 452.784 227.283 453.584 226.6C454.4 225.917 455.692 225.575 457.459 225.575H461.634V224.775C461.634 223.642 461.317 222.783 460.684 222.2C460.05 221.6 459.125 221.3 457.909 221.3C457.075 221.3 456.275 221.442 455.509 221.725C454.742 221.992 454.084 222.367 453.534 222.85L452.734 221.525C453.4 220.958 454.2 220.525 455.134 220.225C456.067 219.908 457.05 219.75 458.084 219.75ZM457.459 231.725C458.459 231.725 459.317 231.5 460.034 231.05C460.75 230.583 461.284 229.917 461.634 229.05V226.9H457.509C455.259 226.9 454.134 227.683 454.134 229.25C454.134 230.017 454.425 230.625 455.009 231.075C455.592 231.508 456.409 231.725 457.459 231.725ZM471.755 233.125C470.688 233.125 469.663 232.975 468.68 232.675C467.713 232.358 466.955 231.967 466.405 231.5L467.205 230.1C467.755 230.533 468.447 230.892 469.28 231.175C470.113 231.442 470.98 231.575 471.88 231.575C473.08 231.575 473.963 231.392 474.53 231.025C475.113 230.642 475.405 230.108 475.405 229.425C475.405 228.942 475.247 228.567 474.93 228.3C474.613 228.017 474.213 227.808 473.73 227.675C473.247 227.525 472.605 227.383 471.805 227.25C470.738 227.05 469.88 226.85 469.23 226.65C468.58 226.433 468.022 226.075 467.555 225.575C467.105 225.075 466.88 224.383 466.88 223.5C466.88 222.4 467.338 221.5 468.255 220.8C469.172 220.1 470.447 219.75 472.08 219.75C472.93 219.75 473.78 219.867 474.63 220.1C475.48 220.317 476.18 220.608 476.73 220.975L475.955 222.4C474.872 221.65 473.58 221.275 472.08 221.275C470.947 221.275 470.088 221.475 469.505 221.875C468.938 222.275 468.655 222.8 468.655 223.45C468.655 223.95 468.813 224.35 469.13 224.65C469.463 224.95 469.872 225.175 470.355 225.325C470.838 225.458 471.505 225.6 472.355 225.75C473.405 225.95 474.247 226.15 474.88 226.35C475.513 226.55 476.055 226.892 476.505 227.375C476.955 227.858 477.18 228.525 477.18 229.375C477.18 230.525 476.697 231.442 475.73 232.125C474.78 232.792 473.455 233.125 471.755 233.125ZM487.386 232.2C487.053 232.5 486.636 232.733 486.136 232.9C485.653 233.05 485.145 233.125 484.611 233.125C483.378 233.125 482.428 232.792 481.761 232.125C481.095 231.458 480.761 230.517 480.761 229.3V221.35H478.411V219.85H480.761V216.975H482.536V219.85H486.536V221.35H482.536V229.2C482.536 229.983 482.728 230.583 483.111 231C483.511 231.4 484.078 231.6 484.811 231.6C485.178 231.6 485.528 231.542 485.861 231.425C486.211 231.308 486.511 231.142 486.761 230.925L487.386 232.2ZM490.618 219.85H492.393V233H490.618V219.85ZM491.518 216.975C491.151 216.975 490.843 216.85 490.593 216.6C490.343 216.35 490.218 216.05 490.218 215.7C490.218 215.367 490.343 215.075 490.593 214.825C490.843 214.575 491.151 214.45 491.518 214.45C491.884 214.45 492.193 214.575 492.443 214.825C492.693 215.058 492.818 215.342 492.818 215.675C492.818 216.042 492.693 216.35 492.443 216.6C492.193 216.85 491.884 216.975 491.518 216.975ZM501.931 219.75C503.648 219.75 504.965 220.183 505.881 221.05C506.798 221.9 507.256 223.167 507.256 224.85V233H505.556V230.95C505.156 231.633 504.565 232.167 503.781 232.55C503.015 232.933 502.098 233.125 501.031 233.125C499.565 233.125 498.398 232.775 497.531 232.075C496.665 231.375 496.231 230.45 496.231 229.3C496.231 228.183 496.631 227.283 497.431 226.6C498.248 225.917 499.54 225.575 501.306 225.575H505.481V224.775C505.481 223.642 505.165 222.783 504.531 222.2C503.898 221.6 502.973 221.3 501.756 221.3C500.923 221.3 500.123 221.442 499.356 221.725C498.59 221.992 497.931 222.367 497.381 222.85L496.581 221.525C497.248 220.958 498.048 220.525 498.981 220.225C499.915 219.908 500.898 219.75 501.931 219.75ZM501.306 231.725C502.306 231.725 503.165 231.5 503.881 231.05C504.598 230.583 505.131 229.917 505.481 229.05V226.9H501.356C499.106 226.9 497.981 227.683 497.981 229.25C497.981 230.017 498.273 230.625 498.856 231.075C499.44 231.508 500.256 231.725 501.306 231.725ZM518.778 219.75C520.428 219.75 521.736 220.233 522.703 221.2C523.686 222.15 524.178 223.542 524.178 225.375V233H522.403V225.55C522.403 224.183 522.061 223.142 521.378 222.425C520.694 221.708 519.719 221.35 518.453 221.35C517.036 221.35 515.911 221.775 515.078 222.625C514.261 223.458 513.853 224.617 513.853 226.1V233H512.078V219.85H513.778V222.275C514.261 221.475 514.928 220.858 515.778 220.425C516.644 219.975 517.644 219.75 518.778 219.75ZM554.089 215.5V233H552.314V219L545.439 230.775H544.564L537.689 219.075V233H535.914V215.5H537.439L545.039 228.475L552.564 215.5H554.089ZM564.016 219.75C565.733 219.75 567.05 220.183 567.966 221.05C568.883 221.9 569.341 223.167 569.341 224.85V233H567.641V230.95C567.241 231.633 566.65 232.167 565.866 232.55C565.1 232.933 564.183 233.125 563.116 233.125C561.65 233.125 560.483 232.775 559.616 232.075C558.75 231.375 558.316 230.45 558.316 229.3C558.316 228.183 558.716 227.283 559.516 226.6C560.333 225.917 561.625 225.575 563.391 225.575H567.566V224.775C567.566 223.642 567.25 222.783 566.616 222.2C565.983 221.6 565.058 221.3 563.841 221.3C563.008 221.3 562.208 221.442 561.441 221.725C560.675 221.992 560.016 222.367 559.466 222.85L558.666 221.525C559.333 220.958 560.133 220.525 561.066 220.225C562 219.908 562.983 219.75 564.016 219.75ZM563.391 231.725C564.391 231.725 565.25 231.5 565.966 231.05C566.683 230.583 567.216 229.917 567.566 229.05V226.9H563.441C561.191 226.9 560.066 227.683 560.066 229.25C560.066 230.017 560.358 230.625 560.941 231.075C561.525 231.508 562.341 231.725 563.391 231.725ZM581.088 232.2C580.754 232.5 580.338 232.733 579.838 232.9C579.354 233.05 578.846 233.125 578.313 233.125C577.079 233.125 576.129 232.792 575.463 232.125C574.796 231.458 574.463 230.517 574.463 229.3V221.35H572.113V219.85H574.463V216.975H576.238V219.85H580.238V221.35H576.238V229.2C576.238 229.983 576.429 230.583 576.813 231C577.213 231.4 577.779 231.6 578.513 231.6C578.879 231.6 579.229 231.542 579.563 231.425C579.913 231.308 580.213 231.142 580.463 230.925L581.088 232.2ZM595.125 219.85L588.55 234.575C588.016 235.808 587.4 236.683 586.7 237.2C586 237.717 585.158 237.975 584.175 237.975C583.541 237.975 582.95 237.875 582.4 237.675C581.85 237.475 581.375 237.175 580.975 236.775L581.8 235.45C582.466 236.117 583.266 236.45 584.2 236.45C584.8 236.45 585.308 236.283 585.725 235.95C586.158 235.617 586.558 235.05 586.925 234.25L587.5 232.975L581.625 219.85H583.475L588.425 231.025L593.375 219.85H595.125ZM601.003 233.125C599.936 233.125 598.911 232.975 597.928 232.675C596.961 232.358 596.203 231.967 595.653 231.5L596.453 230.1C597.003 230.533 597.695 230.892 598.528 231.175C599.361 231.442 600.228 231.575 601.128 231.575C602.328 231.575 603.211 231.392 603.778 231.025C604.361 230.642 604.653 230.108 604.653 229.425C604.653 228.942 604.495 228.567 604.178 228.3C603.861 228.017 603.461 227.808 602.978 227.675C602.495 227.525 601.853 227.383 601.053 227.25C599.986 227.05 599.128 226.85 598.478 226.65C597.828 226.433 597.27 226.075 596.803 225.575C596.353 225.075 596.128 224.383 596.128 223.5C596.128 222.4 596.586 221.5 597.503 220.8C598.42 220.1 599.695 219.75 601.328 219.75C602.178 219.75 603.028 219.867 603.878 220.1C604.728 220.317 605.428 220.608 605.978 220.975L605.203 222.4C604.12 221.65 602.828 221.275 601.328 221.275C600.195 221.275 599.336 221.475 598.753 221.875C598.186 222.275 597.903 222.8 597.903 223.45C597.903 223.95 598.061 224.35 598.378 224.65C598.711 224.95 599.12 225.175 599.603 225.325C600.086 225.458 600.753 225.6 601.603 225.75C602.653 225.95 603.495 226.15 604.128 226.35C604.761 226.55 605.303 226.892 605.753 227.375C606.203 227.858 606.428 228.525 606.428 229.375C606.428 230.525 605.945 231.442 604.978 232.125C604.028 232.792 602.703 233.125 601.003 233.125ZM609.709 219.85H611.484V233H609.709V219.85ZM610.609 216.975C610.243 216.975 609.934 216.85 609.684 216.6C609.434 216.35 609.309 216.05 609.309 215.7C609.309 215.367 609.434 215.075 609.684 214.825C609.934 214.575 610.243 214.45 610.609 214.45C610.976 214.45 611.284 214.575 611.534 214.825C611.784 215.058 611.909 215.342 611.909 215.675C611.909 216.042 611.784 216.35 611.534 216.6C611.284 216.85 610.976 216.975 610.609 216.975ZM621.023 219.75C622.74 219.75 624.057 220.183 624.973 221.05C625.89 221.9 626.348 223.167 626.348 224.85V233H624.648V230.95C624.248 231.633 623.657 232.167 622.873 232.55C622.107 232.933 621.19 233.125 620.123 233.125C618.657 233.125 617.49 232.775 616.623 232.075C615.757 231.375 615.323 230.45 615.323 229.3C615.323 228.183 615.723 227.283 616.523 226.6C617.34 225.917 618.632 225.575 620.398 225.575H624.573V224.775C624.573 223.642 624.257 222.783 623.623 222.2C622.99 221.6 622.065 221.3 620.848 221.3C620.015 221.3 619.215 221.442 618.448 221.725C617.682 221.992 617.023 222.367 616.473 222.85L615.673 221.525C616.34 220.958 617.14 220.525 618.073 220.225C619.007 219.908 619.99 219.75 621.023 219.75ZM620.398 231.725C621.398 231.725 622.257 231.5 622.973 231.05C623.69 230.583 624.223 229.917 624.573 229.05V226.9H620.448C618.198 226.9 617.073 227.683 617.073 229.25C617.073 230.017 617.365 230.625 617.948 231.075C618.532 231.508 619.348 231.725 620.398 231.725ZM636.044 226.4L632.944 229.25V233H631.169V214.45H632.944V227.025L640.794 219.85H642.994L637.369 225.225L643.519 233H641.344L636.044 226.4Z" fill="#A8A8A8"/>
</svg>
